<svg width="28" height="21" viewBox="0 0 28 21" fill="none" xmlns="http://www.w3.org/2000/svg">
<path fill-rule="evenodd" clip-rule="evenodd" d="M16.1827 20.4928H6.66266C5.10853 20.3573 3.66214 19.6424 2.61066 18.49C1.55919 17.3375 0.979486 15.8319 0.986638 14.2718C0.989433 13.3382 1.21217 12.4183 1.63678 11.5868C2.0614 10.7553 2.67598 10.0355 3.43067 9.48582C3.28959 8.79437 3.32109 8.07882 3.5224 7.40245C3.72372 6.72608 4.08862 6.10978 4.58484 5.60802C5.08107 5.10625 5.69334 4.73449 6.36744 4.52568C7.04153 4.31687 7.75668 4.27742 8.44965 4.41081C9.25791 3.0219 10.4736 1.91509 11.9321 1.24034C13.3905 0.56559 15.0212 0.355576 16.603 0.638716C18.1849 0.921856 19.6414 1.68447 20.7752 2.82323C21.909 3.96198 22.6654 5.42182 22.9417 7.00487C24.4945 7.43639 25.8466 8.3993 26.7622 9.72569C27.6778 11.0521 28.0987 12.6578 27.9515 14.2627C27.8044 15.8677 27.0986 17.3701 25.9572 18.5079C24.8157 19.6458 23.3111 20.3468 21.7056 20.4888L16.1827 20.4928ZM7.64063 5.87285C6.92024 5.87129 6.22856 6.15495 5.71668 6.66185C5.45584 6.91798 5.24797 7.22302 5.10505 7.55949C4.96212 7.89597 4.88692 8.25729 4.88367 8.62285C4.88305 8.94083 4.93889 9.25641 5.04865 9.55485L5.27362 10.1608L4.71265 10.4848C4.04993 10.8714 3.49982 11.4246 3.11689 12.0894C2.73395 12.7542 2.53153 13.5076 2.52967 14.2748C2.51985 15.4401 2.94642 16.567 3.72553 17.4336C4.50464 18.3003 5.57984 18.844 6.73963 18.9578H21.6397C22.9146 18.8261 24.0997 18.2407 24.9791 17.3081C25.8584 16.3756 26.3734 15.1581 26.4301 13.8777C26.4868 12.5972 26.0816 11.339 25.2882 10.3324C24.4947 9.32576 23.366 8.63779 22.1077 8.39384L21.5436 8.29387L21.4836 7.72581C21.3734 6.65288 20.9901 5.62613 20.3704 4.74333C19.7507 3.86053 18.9153 3.15115 17.9437 2.68284C17.1973 2.32276 16.3871 2.11395 15.5596 2.0684C14.7322 2.02285 13.9039 2.14148 13.1226 2.41746C12.3412 2.69344 11.6222 3.12126 11.0069 3.67637C10.3916 4.23148 9.89231 4.90288 9.53766 5.65184L9.23768 6.28483L8.57868 6.04484C8.29011 5.93966 7.98577 5.88421 7.67865 5.88084H7.64466L7.64063 5.87285ZM18.4476 12.9238L14.9376 17.7638C14.8863 17.8365 14.8183 17.8957 14.7393 17.9366C14.6603 17.9775 14.5726 17.9989 14.4836 17.9989C14.3947 17.9989 14.307 17.9775 14.228 17.9366C14.149 17.8957 14.081 17.8365 14.0297 17.7638L10.5197 12.9278C10.4505 12.8302 10.4134 12.7135 10.4136 12.5939C10.4147 12.4455 10.4746 12.3036 10.5801 12.1994C10.6857 12.0951 10.8283 12.037 10.9766 12.0378H12.7767V6.53782H16.1827V12.0378H17.9887C18.1084 12.0361 18.2254 12.0737 18.3217 12.1448C18.441 12.2319 18.5212 12.3626 18.5447 12.5085C18.5683 12.6543 18.5334 12.8035 18.4476 12.9238Z" fill="#CED0D4"/>
</svg>
