<svg width="23" height="21" viewBox="0 0 23 21" fill="none" xmlns="http://www.w3.org/2000/svg">
<path fill-rule="evenodd" clip-rule="evenodd" d="M22.9863 7.10065C22.9885 6.89995 22.9754 6.69941 22.9473 6.50067C22.9473 6.48967 22.9473 6.48168 22.9473 6.47168C22.9478 6.46436 22.9478 6.45703 22.9473 6.44971C22.8013 4.7322 22.0653 3.11812 20.8643 1.88165C20.2793 1.28988 19.5825 0.820205 18.8145 0.49988C18.0465 0.179555 17.2225 0.0149963 16.3903 0.0156882C15.4502 0.0176144 14.5216 0.221901 13.6675 0.614626C12.8134 1.00735 12.0537 1.57931 11.4403 2.29169C10.879 1.61584 10.1826 1.06487 9.39576 0.674135C8.6089 0.283401 7.74902 0.0615339 6.87134 0.0228293C5.99366 -0.0158752 5.11758 0.12939 4.29938 0.449343C3.48118 0.769296 2.73891 1.25686 2.1203 1.88068C0.918758 3.11654 0.183268 4.73102 0.0393111 6.44867C0.0382777 6.45429 0.0382777 6.46008 0.0393111 6.4657C0.0393111 6.4767 0.0393111 6.48767 0.0393111 6.50067C0.0108148 6.69936 -0.00222583 6.89994 0.000309598 7.10065C0.00684883 7.72089 0.0867744 8.33823 0.238347 8.9397C0.743139 10.9687 1.86044 12.7929 3.43836 14.1647L10.9303 20.8057C11.0688 20.9266 11.2464 20.9933 11.4303 20.9933C11.6142 20.9933 11.7918 20.9266 11.9303 20.8057L19.5523 14.1657C21.1302 12.7939 22.2475 10.9696 22.7523 8.94068C22.9028 8.33876 22.9814 7.72108 22.9863 7.10065ZM21.2983 8.60767C20.8631 10.3491 19.9014 11.9139 18.5443 13.0887H18.5504L11.4263 19.2887L4.42633 13.0887C3.0697 11.9141 2.10836 10.3497 1.67334 8.60871C1.54763 8.11633 1.48049 7.61079 1.47333 7.10266C1.47108 6.96084 1.48008 6.81905 1.50031 6.67865L1.50635 6.62866C1.6112 5.22681 2.20262 3.90568 3.17835 2.89368C3.62257 2.44103 4.15282 2.08176 4.73792 1.83704C5.32301 1.59232 5.95112 1.46711 6.58533 1.46869C7.437 1.46873 8.2736 1.69314 9.01093 2.11939C9.74826 2.54563 10.3603 3.15865 10.7853 3.89667C10.8523 4.00615 10.9461 4.09671 11.0579 4.15973C11.1697 4.22275 11.2958 4.25611 11.4241 4.25672C11.5525 4.25732 11.6789 4.22512 11.7913 4.16315C11.9037 4.10118 11.9984 4.0115 12.0663 3.90265C12.5174 3.16088 13.1515 2.5475 13.9078 2.12128C14.6641 1.69506 15.5172 1.47034 16.3853 1.46869C17.0198 1.46729 17.6482 1.59283 18.2335 1.83789C18.8188 2.08296 19.3491 2.44261 19.7933 2.89569C20.77 3.90607 21.361 5.22716 21.4633 6.62866L21.4713 6.67865C21.4915 6.81838 21.5006 6.95949 21.4984 7.10065C21.4912 7.6091 21.4241 8.11495 21.2983 8.60767Z" fill="#CED0D4"/>
</svg>
