<svg width="23" height="23" viewBox="0 0 23 23" fill="none" xmlns="http://www.w3.org/2000/svg">
<path fill-rule="evenodd" clip-rule="evenodd" d="M17.9341 14.715C17.3994 14.7146 16.87 14.8218 16.3776 15.0304C15.8852 15.239 15.4398 15.5446 15.0681 15.929C14.9444 16.0549 14.8289 16.1885 14.7222 16.3291L8.90717 12.718C9.15251 11.9174 9.15251 11.0617 8.90717 10.2611L14.7231 6.67806C15.0944 7.18056 15.5783 7.58908 16.1359 7.87093C16.6935 8.15277 17.3094 8.30009 17.9341 8.30104C18.7584 8.31992 19.5695 8.09278 20.264 7.64858C20.9586 7.20437 21.505 6.56323 21.8336 5.80708C22.1621 5.05094 22.2578 4.21403 22.1086 3.40321C21.9593 2.5924 21.5719 1.84445 20.9957 1.25484C20.4194 0.665228 19.6805 0.260702 18.8734 0.092912C18.0662 -0.0748781 17.2273 0.00170118 16.4638 0.312822C15.7003 0.623942 15.0469 1.1555 14.5869 1.83968C14.1268 2.52385 13.8812 3.32957 13.8812 4.15401C13.881 4.5524 13.9379 4.94876 14.0501 5.33101L8.21912 8.92403C7.84596 8.43355 7.36478 8.03567 6.81293 7.76131C6.26108 7.48694 5.6534 7.3435 5.03711 7.34206C3.95303 7.36587 2.92137 7.81321 2.16309 8.58833C1.4048 9.36345 0.980225 10.4047 0.980225 11.489C0.980225 12.5734 1.4048 13.6146 2.16309 14.3897C2.92137 15.1648 3.95303 15.6123 5.03711 15.6361C5.65319 15.6348 6.26068 15.4915 6.81238 15.2173C7.36407 14.9431 7.84514 14.5453 8.21814 14.055L14.0501 17.676C13.8415 18.3903 13.8258 19.1471 14.0046 19.8693C14.1834 20.5916 14.5503 21.2536 15.0681 21.788C15.4399 22.1723 15.8852 22.4779 16.3774 22.6866C16.8697 22.8953 17.399 23.0028 17.9337 23.0028C18.4683 23.0028 18.9975 22.8953 19.4898 22.6866C19.9821 22.4779 20.4274 22.1723 20.7991 21.788C21.5611 21.0022 21.9872 19.9506 21.9872 18.856C21.9872 17.7615 21.5611 16.7099 20.7991 15.924C20.4271 15.5406 19.9818 15.2359 19.4896 15.0282C18.9974 14.8205 18.4684 14.714 17.9341 14.715Z" fill="#CED0D4"/>
</svg>
